<svg xmlns="http://www.w3.org/2000/svg" width="256" height="256" viewBox="0 0 256 256">
  <rect width="256" height="256" rx="44" fill="#120f08"/>
  <!-- original pixel/vector oni demon mask (not derived from any logo) -->
  <g stroke="#0a0805" stroke-width="3.5" stroke-linejoin="round">
    <path d="M92 82 C58 74 30 56 16 28 C14 50 30 66 52 78 C66 86 82 88 92 82 Z" fill="#f63a4c"/>
    <path d="M164 82 C198 74 226 56 240 28 C242 50 226 66 204 78 C190 86 174 88 164 82 Z" fill="#f63a4c"/>
    <path d="M128 64 C174 64 200 98 198 140 C196 182 166 214 128 234 C90 214 60 182 58 140 C56 98 82 64 128 64 Z" fill="#f63a4c"/>
    <path d="M128 64 C150 64 168 78 178 100 C150 92 106 92 78 100 C88 78 106 64 128 64 Z" fill="#ff5a68"/>
    <path d="M70 114 L124 142 L124 158 L72 132 Z" fill="#7c1622"/>
    <path d="M186 114 L132 142 L132 158 L184 132 Z" fill="#7c1622"/>
    <path d="M80 132 L122 146 L114 158 L80 150 Z" fill="#fcee0a"/>
    <path d="M176 132 L134 146 L142 158 L176 150 Z" fill="#fcee0a"/>
    <path d="M121 160 L135 160 L128 178 Z" fill="#7c1622"/>
    <path d="M84 184 C108 177 148 177 172 184 C163 210 93 210 84 184 Z" fill="#2a0c10"/>
    <path d="M94 186 L108 186 L101 204 Z" fill="#e8e4cb"/>
    <path d="M148 186 L162 186 L155 204 Z" fill="#e8e4cb"/>
    <path d="M120 187 L128 187 L124 198 Z" fill="#e8e4cb"/>
    <path d="M128 187 L136 187 L132 198 Z" fill="#e8e4cb"/>
  </g>
</svg>
